<svg width="32" height="32" viewBox="0 0 32 32" fill="none" xmlns="http://www.w3.org/2000/svg">
<g clip-path="url(#clip0_1477_510)">
<path d="M7.1348 13.5115C9.81426 13.5115 11.9864 11.3394 11.9864 8.65995C11.9864 5.98048 9.81426 3.80835 7.1348 3.80835C4.45534 3.80835 2.2832 5.98048 2.2832 8.65995C2.2832 11.3394 4.45534 13.5115 7.1348 13.5115Z" stroke="black" stroke-miterlimit="10"/>
<path d="M13.2636 19.9416V18.1182C13.2636 15.9682 11.5207 14.2253 9.37071 14.2253H4.89876C2.74877 14.2253 1.00586 15.9682 1.00586 18.1182V23.821H8.80945M22.8905 18.8303H21.5947V15.779C21.5947 14.0089 20.1598 12.574 18.3897 12.574C17.658 12.574 17.0649 13.1671 17.0649 13.8988V17.0447L15.5648 18.8304L13.2797 19.9417V29.808L15.3849 31.0607H22.8906C24.6424 31.0607 26.0625 29.6405 26.0625 27.8887V22.0023C26.0625 20.2504 24.6423 18.8303 22.8905 18.8303Z" stroke="black" stroke-miterlimit="10"/>
<path d="M9.00684 19.9417H13.2796V29.808H9.00684V19.9417Z" stroke="black" stroke-miterlimit="10"/>
<path d="M19.328 8.00493C20.1164 6.33536 21.4602 4.99149 23.1298 4.20309C21.4602 3.41468 20.1164 2.07081 19.328 0.401245C18.5396 2.07083 17.1957 3.4147 15.5261 4.20309C17.1957 4.99146 18.5396 6.33533 19.328 8.00493ZM27.7305 14.7441C26.9421 13.0745 25.5982 11.7307 23.9287 10.9423C25.5982 10.1539 26.9421 8.80999 27.7305 7.14042C28.5189 8.81 29.8628 10.1539 31.5324 10.9423C29.8628 11.7306 28.5189 13.0745 27.7305 14.7441Z" stroke="black" stroke-miterlimit="10" stroke-linejoin="bevel"/>
</g>
<defs>
<clipPath id="clip0_1477_510">
<rect width="32" height="32" fill="white"/>
</clipPath>
</defs>
</svg>
