<svg width="24" height="24" viewBox="0 0 24 24" fill="none" xmlns="http://www.w3.org/2000/svg">
<g clip-path="url(#clip0_1528_2190)">
<path d="M12.0041 5.83838C11.1954 5.83825 10.3945 5.99744 9.64735 6.30686C8.90017 6.61628 8.22126 7.06987 7.64941 7.64172C7.07756 8.21357 6.62397 8.89248 6.31455 9.63966C6.00513 10.3868 5.84594 11.1877 5.84607 11.9964C5.84594 12.8051 6.00513 13.6059 6.31455 14.3531C6.62397 15.1003 7.07756 15.7792 7.64941 16.351C8.22126 16.9229 8.90017 17.3765 9.64735 17.6859C10.3945 17.9953 11.1954 18.1545 12.0041 18.1544C12.8128 18.1545 13.6136 17.9953 14.3608 17.6859C15.108 17.3765 15.7869 16.9229 16.3587 16.351C16.9306 15.7792 17.3842 15.1003 17.6936 14.3531C18.003 13.6059 18.1622 12.8051 18.1621 11.9964C18.1622 11.1877 18.003 10.3868 17.6936 9.63966C17.3842 8.89248 16.9306 8.21357 16.3587 7.64172C15.7869 7.06987 15.108 6.61628 14.3608 6.30686C13.6136 5.99744 12.8128 5.83825 12.0041 5.83838ZM12.0041 15.9934C11.2138 15.9932 10.4414 15.7587 9.78439 15.3195C9.1274 14.8804 8.61538 14.2563 8.31306 13.5261C8.01073 12.796 7.93168 11.9926 8.0859 11.2176C8.24012 10.4425 8.62068 9.73057 9.17947 9.17178C9.73826 8.61299 10.4502 8.23243 11.2252 8.07821C12.0003 7.92399 12.8037 8.00304 13.5338 8.30537C14.2639 8.60769 14.888 9.11971 15.3272 9.7767C15.7664 10.4337 16.0009 11.2061 16.0011 11.9964C16.0013 12.5213 15.8981 13.0412 15.6974 13.5263C15.4966 14.0113 15.2022 14.4521 14.831 14.8233C14.4598 15.1945 14.019 15.4889 13.534 15.6897C13.0489 15.8904 12.529 15.9936 12.0041 15.9934Z" fill="white"/>
<path d="M16.948 0.0763632C14.74 -0.0266368 9.27098 -0.0216368 7.06098 0.0763632C5.11898 0.167363 3.40598 0.636363 2.02498 2.01736C-0.283017 4.32536 0.0119831 7.43536 0.0119831 11.9964C0.0119831 16.6644 -0.248017 19.7024 2.02498 21.9754C4.34198 24.2914 7.49698 23.9884 12.004 23.9884C16.628 23.9884 18.224 23.9914 19.859 23.3584C22.082 22.4954 23.76 20.5084 23.924 16.9394C24.028 14.7304 24.022 9.26236 23.924 7.05236C23.726 2.83936 21.465 0.284363 16.948 0.0763632ZM20.443 20.4484C18.93 21.9614 16.831 21.8264 11.975 21.8264C6.97498 21.8264 4.96998 21.9004 3.50698 20.4334C1.82198 18.7564 2.12698 16.0634 2.12698 11.9804C2.12698 6.45536 1.55998 2.47636 7.10498 2.19236C8.37898 2.14736 8.75398 2.13236 11.961 2.13236L12.006 2.16236C17.335 2.16236 21.516 1.60436 21.767 7.14836C21.824 8.41336 21.837 8.79336 21.837 11.9954C21.836 16.9374 21.93 18.9544 20.443 20.4484Z" fill="white"/>
<path d="M18.406 7.03425C19.2008 7.03425 19.845 6.38999 19.845 5.59525C19.845 4.80051 19.2008 4.15625 18.406 4.15625C17.6113 4.15625 16.967 4.80051 16.967 5.59525C16.967 6.38999 17.6113 7.03425 18.406 7.03425Z" fill="white"/>
</g>
<defs>
<clipPath id="clip0_1528_2190">
<rect width="24" height="24" fill="white"/>
</clipPath>
</defs>
</svg>
