<svg width="40" height="40" viewBox="0 0 40 40" fill="none" xmlns="http://www.w3.org/2000/svg">
<g clip-path="url(#clip0_1477_525)">
<path d="M10.5847 7.32653L12.842 9.5838L16.2604 6.16528M16.948 29.4112H9.89722M26.3621 15.2929H9.90206M26.3621 20.0014L9.90206 20M20.625 24.7098L9.90206 24.7084" stroke="#1860CC" stroke-width="2" stroke-miterlimit="10"/>
<path d="M22.2005 34.1211H6.36206V1.17188H22.8367L29.8972 8.23242V22.3535" stroke="#1860CC" stroke-width="2" stroke-miterlimit="10"/>
<path d="M29.8971 8.23242H22.8366V1.17188M36.4196 30.5406C36.4196 30.1991 36.3931 29.8639 36.3424 29.5366L38.077 28.5352C37.8089 27.8068 37.4755 27.0917 37.0743 26.3969C36.6731 25.702 36.2206 25.0558 35.7238 24.4594L33.9877 25.4618C33.4639 25.0393 32.8778 24.7006 32.2503 24.4576V22.4539C31.4854 22.3219 30.6995 22.2531 29.8971 22.2531C29.0948 22.2531 28.3088 22.3219 27.544 22.4539V24.4576C26.9165 24.7006 26.3304 25.0393 25.8066 25.4618L24.0704 24.4594C23.5736 25.0557 23.1211 25.702 22.7199 26.3969C22.3188 27.0917 21.9853 27.8067 21.7173 28.5352L23.4518 29.5366C23.349 30.202 23.349 30.8793 23.4518 31.5447L21.7173 32.5461C21.9853 33.2745 22.3188 33.9895 22.7199 34.6844C23.1211 35.3792 23.5736 36.0255 24.0704 36.6219L25.8066 35.6195C26.3304 36.0419 26.9165 36.3807 27.5441 36.6237V38.6273C28.3089 38.7593 29.0949 38.828 29.8972 38.828C30.6996 38.828 31.4855 38.7593 32.2503 38.6273V36.6237C32.8779 36.3807 33.464 36.0419 33.9878 35.6195L35.724 36.6219C36.2208 36.0255 36.6733 35.3792 37.0745 34.6844C37.4756 33.9895 37.8091 33.2745 38.0771 32.5461L36.3426 31.5447C36.3931 31.2173 36.4196 30.8821 36.4196 30.5406Z" stroke="#1860CC" stroke-width="2" stroke-miterlimit="10"/>
<path d="M29.8972 32.894C31.197 32.894 32.2507 31.8403 32.2507 30.5405C32.2507 29.2407 31.197 28.187 29.8972 28.187C28.5974 28.187 27.5437 29.2407 27.5437 30.5405C27.5437 31.8403 28.5974 32.894 29.8972 32.894Z" stroke="#1860CC" stroke-width="2" stroke-miterlimit="10"/>
<path d="M6.36202 5.87891H1.65405V38.8281H24.0134V36.5327" stroke="#1860CC" stroke-width="2" stroke-miterlimit="10"/>
</g>
<defs>
<clipPath id="clip0_1477_525">
<rect width="40" height="40" fill="white"/>
</clipPath>
</defs>
</svg>
