<svg width="40" height="40" viewBox="0 0 40 40" fill="none" xmlns="http://www.w3.org/2000/svg">
<g clip-path="url(#clip0_1477_241)">
<path d="M14.3407 38.7304H1.18774V6.56882L6.58738 1.16919H28.351V23.2515" stroke="#1860CC" stroke-width="2" stroke-miterlimit="10"/>
<path d="M7.74109 1.16919V7.72253H1.18774M18.7169 6.16481H23.886M18.3118 14.052V13.9755C18.3118 12.6683 17.2521 11.6086 15.9448 11.6086H13.8162C12.509 11.6086 11.4492 12.6683 11.4492 13.9755V14.0091C11.4492 15.3163 12.5089 16.376 13.8162 16.376H15.9448C17.252 16.376 18.3118 17.4357 18.3118 18.743C18.3118 20.0502 17.2521 21.11 15.9448 21.11H13.8162C12.509 21.11 11.4492 20.0503 11.4492 18.743V18.6428M14.8805 11.6086V8.34596M14.8805 24.3724V21.1098M26.5764 33.6777H14.3407V38.8307H26.5764M26.5764 33.6777V38.8307M26.5764 33.6777H38.8122V38.8307H26.5764M32.6943 28.5148H38.8123V33.6777H32.6943M32.6943 28.5148V33.6777M32.6943 28.5148H20.4586V33.6777H32.6943M32.6943 18.189H38.8123V23.3519H32.6943V18.189ZM26.5764 23.3519H38.8122V28.5148H26.5764V23.3519Z" stroke="#1860CC" stroke-width="2" stroke-miterlimit="10"/>
</g>
<defs>
<clipPath id="clip0_1477_241">
<rect width="40" height="40" fill="white"/>
</clipPath>
</defs>
</svg>
