<svg width="32" height="32" viewBox="0 0 32 32" fill="none" xmlns="http://www.w3.org/2000/svg">
<path d="M16 4.68752L17.3776 6.54139L19.5664 7.2787L18.2291 9.16176L18.2043 11.4713L16 10.7813L13.7958 11.4713L13.771 9.16176L12.4336 7.2787L14.6224 6.54139L16 4.68752Z" stroke="black" stroke-miterlimit="10"/>
<path d="M27.2851 8.35717C26.9689 13.2884 23.8822 17.4118 19.75 18.994" stroke="black" stroke-miterlimit="10"/>
<path d="M12.25 18.994C7.88055 17.3209 4.6875 12.8065 4.6875 7.50005" stroke="black" stroke-miterlimit="10"/>
<path d="M27.3125 8.43762C26.2885 5.50463 27.836 2.29689 30.769 1.27289C31.793 4.20588 30.2455 7.41362 27.3125 8.43762Z" stroke="black" stroke-miterlimit="10"/>
<path d="M25.3748 15.6251C25.3748 12.5185 27.9556 10.0001 31.0622 10.0001C31.0622 13.1068 28.4814 15.6251 25.3748 15.6251Z" stroke="black" stroke-miterlimit="10"/>
<path d="M20.6875 18.7501C23.2344 16.9713 26.8036 17.594 28.5824 20.1409C26.0355 21.9197 22.4663 21.297 20.6875 18.7501Z" stroke="black" stroke-miterlimit="10"/>
<path d="M4.68743 8.43762C5.71142 5.50463 4.16393 2.29689 1.23094 1.27289C0.20694 4.20588 1.75444 7.41362 4.68743 8.43762Z" stroke="black" stroke-miterlimit="10"/>
<path d="M6.62498 15.6251C6.62498 12.5185 4.04412 10.0626 0.9375 10.0626C0.9375 13.1693 3.51837 15.6251 6.62498 15.6251Z" stroke="black" stroke-miterlimit="10"/>
<path d="M11.3123 18.7501C8.7654 16.9713 5.19623 17.594 3.41748 20.1409C5.96435 21.9197 9.53353 21.297 11.3123 18.7501Z" stroke="black" stroke-miterlimit="10"/>
<path d="M23.5 8.43764C23.5 12.5798 20.1421 15.9376 16 15.9376C11.8579 15.9376 8.5 12.5798 8.5 8.43764C8.5 4.29553 11.8579 0.937666 16 0.937666C20.1421 0.937666 23.5 4.29553 23.5 8.43764Z" stroke="black" stroke-miterlimit="10"/>
<path d="M19.75 14.9342V29.6875L16 25.75L12.25 29.6875V14.9342" stroke="black" stroke-miterlimit="10"/>
<path d="M16 25.75V15.9375" stroke="black" stroke-miterlimit="10"/>
</svg>
