<svg width="32" height="32" viewBox="0 0 32 32" fill="none" xmlns="http://www.w3.org/2000/svg">
<g clip-path="url(#clip0_1477_403)">
<path d="M8.46772 5.86125L10.2735 7.66706L13.0083 4.93225M13.5583 23.529H7.91772M21.0896 12.2344H7.9216M21.0896 16.0011L7.9216 16M16.4999 19.7679L7.9216 19.7668" stroke="black" stroke-miterlimit="10"/>
<path d="M17.7603 27.2969H5.0896V0.9375H18.2693L23.9177 6.58594V17.8828" stroke="black" stroke-miterlimit="10"/>
<path d="M23.9177 6.58594H18.2692V0.9375M29.1356 24.4325C29.1356 24.1593 29.1144 23.8911 29.0739 23.6292L30.4615 22.8281C30.2471 22.2454 29.9803 21.6734 29.6594 21.1175C29.3385 20.5616 28.9765 20.0446 28.579 19.5675L27.1901 20.3694C26.7711 20.0315 26.3022 19.7604 25.8002 19.5661V17.9631C25.1883 17.8575 24.5595 17.8025 23.9177 17.8025C23.2758 17.8025 22.647 17.8575 22.0352 17.9631V19.5661C21.5331 19.7604 21.0642 20.0315 20.6452 20.3694L19.2563 19.5675C18.8588 20.0446 18.4968 20.5616 18.1759 21.1175C17.855 21.6734 17.5882 22.2454 17.3738 22.8281L18.7614 23.6292C18.6791 24.1616 18.6791 24.7034 18.7614 25.2358L17.3738 26.0369C17.5882 26.6196 17.855 27.1916 18.1759 27.7475C18.4968 28.3034 18.8588 28.8204 19.2563 29.2975L20.6452 28.4956C21.0643 28.8336 21.5332 29.1046 22.0352 29.2989V30.9018C22.6471 31.0074 23.2758 31.0624 23.9177 31.0624C24.5596 31.0624 25.1883 31.0074 25.8002 30.9018V29.2989C26.3023 29.1045 26.7712 28.8335 27.1902 28.4956L28.5792 29.2975C28.9766 28.8204 29.3386 28.3034 29.6595 27.7475C29.9805 27.1916 30.2472 26.6196 30.4617 26.0369L29.074 25.2358C29.1144 24.9739 29.1356 24.7057 29.1356 24.4325Z" stroke="black" stroke-miterlimit="10"/>
<path d="M23.9177 26.3153C24.9576 26.3153 25.8005 25.4723 25.8005 24.4325C25.8005 23.3926 24.9576 22.5497 23.9177 22.5497C22.8779 22.5497 22.0349 23.3926 22.0349 24.4325C22.0349 25.4723 22.8779 26.3153 23.9177 26.3153Z" stroke="black" stroke-miterlimit="10"/>
<path d="M5.08962 4.70312H1.32324V31.0625H19.2107V29.2262" stroke="black" stroke-miterlimit="10"/>
</g>
<defs>
<clipPath id="clip0_1477_403">
<rect width="32" height="32" fill="white"/>
</clipPath>
</defs>
</svg>
