<svg width="32" height="32" viewBox="0 0 32 32" fill="none" xmlns="http://www.w3.org/2000/svg">
<g clip-path="url(#clip0_1477_498)">
<path d="M12.7271 16.7468V12.7271H8.70731C8.70731 11.6915 7.86788 10.8521 6.83231 10.8521C5.79675 10.8521 4.95731 11.6915 4.95731 12.7271H0.9375V24.5166H12.7271V20.4969C11.6915 20.4969 10.8521 19.6574 10.8521 18.6219C10.8521 17.5863 11.6915 16.7468 12.7271 16.7468Z" stroke="black" stroke-miterlimit="10"/>
<path d="M8.70725 12.7271H12.727V8.70731C13.7626 8.70731 14.602 7.86788 14.602 6.83231C14.602 5.79675 13.7626 4.95731 12.727 4.95731V0.9375H0.9375V12.7271H4.95725C4.95725 11.6915 5.79669 10.8521 6.83225 10.8521C7.86781 10.8521 8.70725 11.6915 8.70725 12.7271Z" stroke="black" stroke-miterlimit="10"/>
<path d="M12.7271 8.70725V12.727H16.7468C16.7468 13.7626 17.5862 14.602 18.6218 14.602C19.6574 14.602 20.4968 13.7626 20.4968 12.727H24.5166V0.9375H12.7271V4.95725C13.7626 4.95725 14.6021 5.79669 14.6021 6.83225C14.6021 7.86781 13.7626 8.70725 12.7271 8.70725ZM23.2927 19.2729H19.273V23.2927C18.2374 23.2927 17.398 24.1321 17.398 25.1677C17.398 26.2033 18.2374 27.0427 19.273 27.0427V31.0625H31.0625V19.2729H27.0427C27.0427 20.3085 26.2033 21.1479 25.1677 21.1479C24.1322 21.1479 23.2927 20.3085 23.2927 19.2729Z" stroke="black" stroke-miterlimit="10"/>
</g>
<defs>
<clipPath id="clip0_1477_498">
<rect width="32" height="32" fill="white"/>
</clipPath>
</defs>
</svg>
