<svg width="40" height="40" viewBox="0 0 40 40" fill="none" xmlns="http://www.w3.org/2000/svg">
<g clip-path="url(#clip0_1477_442)">
<path d="M20 24.6155V29.2309" stroke="#1860CC" stroke-width="2" stroke-linejoin="bevel"/>
<path d="M10 24.6155V35.3847H6.9231" stroke="#1860CC" stroke-width="2"/>
<path d="M29.2307 24.6155V36.1539H33.0769" stroke="#1860CC" stroke-width="2"/>
<rect x="17.1538" y="30.2307" width="5.69231" height="5.69231" stroke="#1860CC" stroke-width="2"/>
<rect x="1" y="32.5386" width="5.69231" height="5.69231" stroke="#1860CC" stroke-width="2"/>
<rect x="33.3076" y="33.3076" width="5.69231" height="5.69231" stroke="#1860CC" stroke-width="2"/>
<path d="M23.6154 5.31964V6.05367L24.3157 6.27367C25.1039 6.5213 25.863 6.83493 26.5864 7.20829L27.2355 7.54336L27.7521 7.02678L30.7704 4.0085L35.8833 9.12147L32.899 12.1058L32.3768 12.628L32.7223 13.2807C33.1263 14.0438 33.4635 14.8477 33.7263 15.6843L33.9462 16.3846H34.6803H39V23.6154H1V16.3846H5.31968H6.05379L6.27374 15.6842C6.53661 14.8472 6.87401 14.0432 7.27827 13.2797L7.6239 12.6269L7.10163 12.1047L4.11853 9.12148L9.23149 4.00848L12.2491 7.02604L12.7656 7.54249L13.4147 7.20764C14.1378 6.83458 14.8965 6.52112 15.6843 6.27368L16.3846 6.0537V5.31964V1H23.6154V5.31964Z" stroke="#1860CC" stroke-width="2"/>
<path d="M27.4616 19.6154C27.4616 21.0779 27.0624 22.4446 26.367 23.6154H12.8639C12.1685 22.4446 11.7693 21.0778 11.7693 19.6154C11.7693 15.2821 15.2821 11.7693 19.6154 11.7693C23.9488 11.7693 27.4616 15.2821 27.4616 19.6154Z" stroke="#1860CC" stroke-width="2"/>
</g>
<defs>
<clipPath id="clip0_1477_442">
<rect width="40" height="40" fill="white"/>
</clipPath>
</defs>
</svg>
