<svg width="32" height="32" viewBox="0 0 32 32" fill="none" xmlns="http://www.w3.org/2000/svg">
<path d="M18.9106 23.548L20.9721 24.5L26.4387 21.9756C28.1233 21.1977 29.2019 19.5114 29.2019 17.6559V3.97781H27.2324C26.0834 3.97781 24.951 3.70352 23.9294 3.17775C22.9077 2.65198 22.0264 1.88992 21.3586 0.954938L21.3462 0.9375H20.598L20.5856 0.954938C19.9178 1.88992 19.0364 2.65198 18.0148 3.17775C16.9931 3.70352 15.8607 3.97781 14.7118 3.97781H12.7422V15.625" stroke="black" stroke-width="1.1" stroke-miterlimit="10"/>
<path d="M18.0108 9.31681L20.0065 11.3126L23.9336 7.3855M17.8151 16.4376H24.1292M7.04541 21.7974L9.5481 18.9752V14.8751H10.4763C12.2418 14.8751 13.6731 16.3063 13.6731 18.0719V20.8126H16.407C17.9403 20.8126 19.1117 22.1812 18.875 23.6961L18.054 28.9503C17.864 30.1662 16.8167 31.0626 15.586 31.0626H6.9856M6.9856 31.0626V21.8126H2.7981V31.0626H6.9856Z" stroke="black" stroke-width="1.1" stroke-miterlimit="10"/>
</svg>
